<?xml version="1.0" standalone="no"?>
<!DOCTYPE svg PUBLIC "-//W3C//DTD SVG 20010904//EN"
 "http://www.w3.org/TR/2001/REC-SVG-20010904/DTD/svg10.dtd">
<svg version="1.0" xmlns="http://www.w3.org/2000/svg"
 width="226.000000pt" height="207.000000pt" viewBox="0 0 226.000000 207.000000"
 preserveAspectRatio="xMidYMid meet">

<g transform="translate(0.000000,207.000000) scale(0.100000,-0.100000)"
fill="#000000" stroke="none">
<path d="M0 1035 l0 -1035 1130 0 1130 0 0 1035 0 1035 -1130 0 -1130 0 0
-1035z m1203 883 c57 -92 232 -401 304 -536 44 -82 54 -110 50 -135 -3 -18
-49 -106 -102 -197 -165 -279 -185 -316 -185 -348 0 -21 28 -74 91 -174 50
-79 98 -149 107 -155 21 -17 342 -18 342 -2 0 5 -45 87 -100 180 -55 93 -109
188 -121 210 l-20 41 24 46 c51 98 84 147 98 147 14 0 455 -759 466 -803 3
-13 0 -29 -6 -35 -17 -17 -730 -23 -783 -7 -44 12 -56 30 -193 270 -48 85 -95
163 -103 173 -14 15 -39 17 -247 17 -271 0 -238 15 -333 -148 l-61 -102 242 0
c173 0 249 -4 267 -13 28 -14 108 -141 109 -173 1 -12 -6 -25 -15 -28 -9 -3
-217 -6 -463 -6 -479 0 -491 1 -479 48 3 12 87 162 186 334 99 172 255 446
348 608 312 548 467 815 487 838 11 12 26 22 33 22 7 0 33 -33 57 -72z"/>
<path d="M1038 1407 c-54 -89 -151 -254 -217 -367 l-120 -205 171 -3 c138 -2
175 0 194 13 27 18 242 371 250 412 4 23 -11 55 -78 167 -46 77 -88 141 -93
143 -6 1 -54 -70 -107 -160z"/>
</g>
</svg>
